<?xml version="1.0" encoding="UTF-8" standalone="no"?>
<svg
   width="512"
   height="512"
   version="1.1"
   id="svg12"
   sodipodi:docname="anilist.svg"
   inkscape:version="1.2 (dc2aeda, 2022-05-15)"
   xmlns:inkscape="http://www.inkscape.org/namespaces/inkscape"
   xmlns:sodipodi="http://sodipodi.sourceforge.net/DTD/sodipodi-0.dtd"
   xmlns="http://www.w3.org/2000/svg"
   xmlns:svg="http://www.w3.org/2000/svg">
  <defs
     id="defs16" />
  <sodipodi:namedview
     id="namedview14"
     pagecolor="#ffffff"
     bordercolor="#000000"
     borderopacity="0.25"
     inkscape:showpageshadow="2"
     inkscape:pageopacity="0.0"
     inkscape:pagecheckerboard="0"
     inkscape:deskcolor="#d1d1d1"
     showgrid="false"
     inkscape:zoom="0.4609375"
     inkscape:cx="256"
     inkscape:cy="256"
     inkscape:window-width="1309"
     inkscape:window-height="456"
     inkscape:window-x="0"
     inkscape:window-y="25"
     inkscape:window-maximized="0"
     inkscape:current-layer="svg12" />
  <title
     id="title2">AniList logo</title>
  <desc
     id="desc4">Anime and manga tracking website</desc>
  <path
     d="M321.92 323.27V136.6c0-10.698-5.887-16.602-16.558-16.602h-36.433c-10.672 0-16.561 5.904-16.561 16.602v88.651c0 2.497 23.996 14.089 24.623 16.541 18.282 71.61 3.972 128.92-13.359 131.6 28.337 1.405 31.455 15.064 10.348 5.731 3.229-38.209 15.828-38.134 52.049-1.406.31.317 7.427 15.282 7.87 15.282h85.545c10.672 0 16.558-5.9 16.558-16.6v-36.524c0-10.698-5.886-16.602-16.558-16.602z"
     fill="#02a9ff"
     id="path8" />
  <path
     d="M170.68 120 74.999 393h74.338l16.192-47.222h80.96L262.315 393h73.968l-95.314-273zm11.776 165.28 23.183-75.629 25.393 75.629z"
     fill="#fefefe"
     id="path10" />
</svg>
