<?xml version="1.0" encoding="UTF-8" standalone="no"?>
<svg
   width="512"
   height="512"
   version="1.1"
   id="svg12"
   sodipodi:docname="animatch.svg"
   inkscape:version="1.2 (dc2aeda, 2022-05-15)"
   xmlns:inkscape="http://www.inkscape.org/namespaces/inkscape"
   xmlns:sodipodi="http://sodipodi.sourceforge.net/DTD/sodipodi-0.dtd"
   xmlns="http://www.w3.org/2000/svg"
   xmlns:svg="http://www.w3.org/2000/svg">
  <defs
     id="defs16">
    <inkscape:path-effect
       effect="fillet_chamfer"
       id="path-effect4138"
       is_visible="true"
       lpeversion="1"
       nodesatellites_param="C,0,0,1,0,11.338583,0,25 @ C,0,0,1,0,11.338583,0,25 @ C,0,0,1,0,11.338583,0,25 @ C,0,0,1,0,11.338583,0,25 @ C,0,0,1,0,11.338583,0,25 @ C,0,0,1,0,11.338583,0,25 @ C,0,0,1,0,11.338583,0,25 @ C,0,0,1,0,11.338583,0,25 @ C,0,0,1,0,11.338583,0,25 @ C,0,0,1,0,11.338583,0,25 @ C,0,0,1,0,11.338583,0,25 @ C,0,0,1,0,11.338583,0,25 @ C,0,0,1,0,11.338583,0,25 @ C,0,0,1,0,11.338583,0,25 @ C,0,0,1,0,11.338583,0,25 @ C,0,0,1,0,11.338583,0,25 @ C,0,0,1,0,11.338583,0,25 @ C,0,0,1,0,11.338583,0,25 @ C,0,0,1,0,11.338583,0,25"
       unit="mm"
       method="auto"
       mode="F"
       radius="3"
       chamfer_steps="25"
       flexible="false"
       use_knot_distance="true"
       apply_no_radius="true"
       apply_with_radius="true"
       only_selected="false"
       hide_knots="false" />
  </defs>
  <sodipodi:namedview
     id="namedview14"
     pagecolor="#ffffff"
     bordercolor="#000000"
     borderopacity="0.25"
     inkscape:showpageshadow="2"
     inkscape:pageopacity="0.0"
     inkscape:pagecheckerboard="0"
     inkscape:deskcolor="#d1d1d1"
     showgrid="false"
     inkscape:zoom="0.4750164"
     inkscape:cx="244.2021"
     inkscape:cy="398.9336"
     inkscape:window-width="1223"
     inkscape:window-height="771"
     inkscape:window-x="217"
     inkscape:window-y="25"
     inkscape:window-maximized="0"
     inkscape:current-layer="svg12" />
  <title
     id="title2">AniList logo</title>
  <desc
     id="desc4">Anime and manga tracking website</desc>
  <rect
     style="fill:#221a1d;fill-opacity:1;stroke-width:4.01444"
     id="rect4288"
     width="512"
     height="512"
     x="0"
     y="0" />
  <g
     aria-label="M"
     transform="matrix(0.9378492,0,0,1.0662695,-75.851702,419.49995)"
     id="text6057"
     style="font-weight:900;font-size:341.61px;font-family:'Satoshi Variable';-inkscape-font-specification:'Satoshi Variable, Heavy';fill:#02a9ff;stroke-width:28.4676">
    <path
       d="m 397.58906,-48.680145 h -30.9556 l -0.77841,-0.02 -0.77635,-0.05996 -0.77225,-0.09976 -0.7661,-0.139297 -0.75794,-0.178466 -0.74777,-0.217162 -0.73563,-0.255285 -0.72154,-0.292736 -0.70556,-0.329411 -0.6877,-0.365219 -0.66804,-0.400061 -0.6466,-0.433847 -0.62347,-0.466488 -0.59868,-0.497898 -0.57231,-0.527992 -0.54444,-0.556692 -0.51513,-0.583924 -0.48445,-0.609613 -0.4525,-0.633692 -0.41935,-0.656099 -0.38509,-0.676773 -0.34983,-0.69566 -0.31362,-0.712712 -0.27661,-0.72788 -0.23885,-0.741128 -61.5641,-209.29843 -0.15521,-0.61056 -0.10948,-0.6204 -0.0631,-0.62681 -0.0164,-0.62977 0.0303,-0.62925 0.0769,-0.62527 0.12313,-0.61784 0.16863,-0.60699 0.21322,-0.59281 0.25661,-0.57535 0.2986,-0.55472 0.33895,-0.53103 0.37741,-0.50442 0.41381,-0.47502 0.44791,-0.44301 0.47955,-0.40854 0.50855,-0.37183 0.53474,-0.33307 0.55798,-0.29247 0.57814,-0.25026 0.59512,-0.20666 0.60882,-0.16194 0.61916,-0.11631 0.62607,-0.07 0.62955,-0.0234 h 30.9556 l 0.79683,0.019 0.79503,0.0569 0.79141,0.0947 0.786,0.13234 0.77879,0.16965 0.76984,0.20655 0.75911,0.243 0.74668,0.27889 0.73254,0.31415 0.71675,0.34869 0.69931,0.38245 0.68031,0.41532 0.65974,0.44727 0.63768,0.47819 0.61418,0.50804 0.58927,0.53671 0.56303,0.56418 0.53552,0.59037 0.50678,0.61521 0.47689,0.63865 0.44592,0.66065 0.41394,0.68115 0.38102,0.70009 0.34724,0.71745 0.31265,0.73319 66.75844,167.50298 0.17857,0.39259 0.21511,0.37383 0.24969,0.35167 0.282,0.32633 0.31177,0.298024 0.3387,0.26702 0.36257,0.233593 0.38313,0.198049 0.40024,0.160707 0.41371,0.12191 0.42343,0.08201 0.42931,0.04136 0.4313,3.37e-4 0.42938,-0.04069 0.42355,-0.08134 0.41391,-0.121263 0.40048,-0.160082 0.38345,-0.19745 0.36293,-0.233026 0.33912,-0.266491 0.31223,-0.29754 0.28252,-0.32589 0.25023,-0.35128 0.21569,-0.37349 0.17919,-0.39231 67.06715,-167.51613 0.31389,-0.73297 0.34842,-0.71721 0.38214,-0.69981 0.41501,-0.68084 0.44694,-0.66033 0.47784,-0.63831 0.50768,-0.61485 0.53636,-0.59 0.56383,-0.5638 0.59001,-0.53635 0.61486,-0.50766 0.63832,-0.47783 0.66034,-0.44692 0.68085,-0.41499 0.69983,-0.38213 0.71721,-0.3484 0.73298,-0.31387 0.74709,-0.27864 0.7595,-0.24278 0.77018,-0.20637 0.77914,-0.16949 0.78632,-0.13222 0.79172,-0.0947 0.79532,-0.0569 0.79713,-0.019 h 31.63882 l 0.71195,0.0224 0.70915,0.067 0.70354,0.11143 0.69515,0.15538 0.68402,0.19873 0.6702,0.24129 0.65372,0.28289 0.63467,0.32338 0.61311,0.36259 0.58914,0.40038 0.56283,0.43657 0.53431,0.47106 0.50368,0.50368 0.47106,0.53431 0.43657,0.56283 0.40038,0.58914 0.36259,0.61311 0.32338,0.63467 0.28289,0.65372 0.24129,0.6702 0.19873,0.68402 0.15538,0.69515 0.11143,0.70354 0.067,0.70915 0.0224,0.71195 v 230.114226 l -0.0224,0.711956 -0.067,0.709145 -0.11143,0.703538 -0.15538,0.695152 -0.19873,0.684024 -0.24129,0.670196 -0.28289,0.653723 -0.32338,0.63467 -0.36259,0.613113 -0.40038,0.589135 -0.43657,0.562833 -0.47106,0.534309 -0.50368,0.503677 -0.53431,0.471057 -0.56283,0.436578 -0.58914,0.400376 -0.61311,0.362594 -0.63467,0.323381 -0.65372,0.282891 -0.6702,0.241285 -0.68402,0.198728 -0.69515,0.155385 -0.70354,0.111429 -0.70915,0.06703 -0.71195,0.02237 h -30.9556 l -0.71195,-0.02237 -0.70915,-0.06703 -0.70354,-0.111429 -0.69515,-0.155385 -0.68402,-0.198728 -0.6702,-0.241285 -0.65372,-0.282891 -0.63467,-0.323381 -0.61311,-0.362594 -0.58914,-0.400376 -0.56283,-0.436578 -0.53431,-0.471057 -0.50368,-0.503677 -0.47106,-0.534309 -0.43657,-0.562833 -0.40038,-0.589135 -0.36259,-0.613113 -0.32338,-0.63467 -0.28289,-0.653723 -0.24129,-0.670196 -0.19873,-0.684024 -0.15538,-0.695152 -0.11143,-0.703538 -0.067,-0.709145 -0.0224,-0.711956 0,-30.272382 0,-33.819394 -6e-5,-0.76963 -1.7e-4,-0.804 -2.1e-4,-0.83538 -2.2e-4,-0.86377 -1.9e-4,-0.88916 -1e-4,-0.91158 3e-5,-0.93101 1.9e-4,-0.94743 4.2e-4,-0.96088 6.8e-4,-0.97134 9.8e-4,-0.97881 0.001,-0.98329 0.002,-0.98477 0.002,-0.98329 0.003,-0.97879 0.003,-0.97132 0.004,-0.96086 0.004,-0.9474 0.005,-0.93096 0.006,-0.91154 0.007,-0.88912 0.007,-0.86371 0.008,-0.83531 0.009,-0.80393 0.01,-0.76956 0.0114,-0.73872 0.014,-0.77356 0.0165,-0.80549 0.0188,-0.83448 0.021,-0.86055 0.0231,-0.8837 0.025,-0.90391 0.0268,-0.92122 0.0284,-0.93558 0.0299,-0.94704 0.0313,-0.95555 0.0325,-0.96116 0.0336,-0.96382 0.0345,-0.96358 0.0354,-0.9604 0.036,-0.9543 0.0366,-0.94528 0.037,-0.93333 0.0372,-0.91845 0.0374,-0.90066 0.0374,-0.87993 0.0372,-0.85628 0.0369,-0.82972 0.0365,-0.80021 0.036,-0.76779 0.015,-0.28995 0.0195,-0.33238 0.0239,-0.37277 0.0283,-0.41114 0.0325,-0.44747 0.0367,-0.48176 0.0408,-0.51404 0.0448,-0.54428 0.0487,-0.57248 0.0525,-0.59865 0.0562,-0.6228 0.0598,-0.64491 0.0634,-0.66499 0.0669,-0.68303 0.0702,-0.69906 0.0735,-0.71304 0.0767,-0.72499 0.0799,-0.73492 0.0829,-0.74281 0.0858,-0.74867 0.0887,-0.75249 0.0915,-0.7543 0.0942,-0.75406 0.0967,-0.75179 0.0993,-0.74749 0.0157,-0.15815 -0.002,-0.11097 -0.0186,-0.0648 -0.035,-0.0197 -0.051,0.0244 -0.0665,0.0674 -0.0815,0.10945 -0.096,0.15044 -0.10998,0.19039 -0.12351,0.22931 -0.13657,0.2672 -0.14915,0.30406 -0.16123,0.33988 -0.17283,0.37468 -0.18396,0.40844 -0.1946,0.44117 -0.20476,0.47286 -0.21443,0.50353 -0.22362,0.53316 -0.23233,0.56176 -0.24055,0.58933 -0.2483,0.61586 -0.25555,0.64137 -0.26233,0.66584 -0.26863,0.68928 -45.43619,117.208004 -0.30517,0.734385 -0.34009,0.718883 -0.37422,0.701722 -0.40748,0.682943 -0.4398,0.662587 -0.47112,0.640704 -0.50134,0.61734 -0.5304,0.592555 -0.55825,0.566399 -0.58481,0.53894 -0.61001,0.510234 -0.6338,0.480353 -0.65615,0.449363 -0.67696,0.417336 -0.69623,0.384347 -0.71388,0.350469 -0.72988,0.315785 -0.74421,0.280371 -0.75681,0.24431 -0.76767,0.207685 -0.77676,0.170582 -0.78405,0.133085 -0.78954,0.09528 -0.7932,0.05726 -0.79504,0.0191 -27.88112,0 -0.79462,-0.01912 -0.79279,-0.05733 -0.78911,-0.0954 -0.78361,-0.133252 -0.77629,-0.170794 -0.76718,-0.207941 -0.75628,-0.244607 -0.74365,-0.280705 -0.72927,-0.316154 -0.71323,-0.350872 -0.69551,-0.384775 -0.67621,-0.417789 -0.65532,-0.449836 -0.63292,-0.480839 -0.60906,-0.510731 -0.58379,-0.539439 -0.55715,-0.566898 -0.52924,-0.593045 -0.5001,-0.617818 -0.4698,-0.641161 -0.43841,-0.663018 -0.40601,-0.683342 -0.37267,-0.702082 -0.33846,-0.719197 -0.30347,-0.734646 -45.14002,-117.190444 -0.26381,-0.67191 -0.25113,-0.6133 -0.23835,-0.55475 -0.22544,-0.49625 -0.21242,-0.43782 -0.19929,-0.37945 -0.18603,-0.32112 -0.17268,-0.26288 -0.15919,-0.20467 -0.1456,-0.14654 -0.13189,-0.0884 -0.11807,-0.0304 -0.10412,0.0275 -0.0901,0.0854 -0.0759,0.14327 -0.0616,0.20106 -0.0472,0.25879 -0.0327,0.31645 -0.0181,0.37406 -0.003,0.43161 0.0115,0.4891 0.0265,0.54653 0.0416,0.60391 0.0568,0.66121 0.0721,0.71848 c 0.27384,2.56257 0.50241,5.17796 0.68573,7.84615 l 0.0508,0.76786 0.0495,0.80236 0.0481,0.83386 0.0468,0.86236 0.0455,0.88787 0.0441,0.9104 0.0428,0.92992 0.0415,0.94645 0.0401,0.95998 0.0388,0.97053 0.0375,0.97807 0.0362,0.98263 0.0349,0.9842 0.0337,0.98275 0.0324,0.97833 0.0311,0.97091 0.0298,0.96049 0.0286,0.94708 0.0273,0.93068 0.026,0.91128 0.0248,0.88889 0.0235,0.86351 0.0223,0.83512 0.0211,0.80375 0.0198,0.76939 c 0.11853,4.63117 0.20262,9.48614 0.25229,14.56491 l 0.0266,0.75957 0.0643,0.77433 0.1008,0.7867 0.13613,0.79671 0.17027,0.80436 0.20323,0.80963 0.23502,0.81253 0.26562,0.81308 0.29503,0.81125 0.32326,0.80705 0.35031,0.80049 0.37618,0.791553 0.40086,0.780256 0.42436,0.766588 0.44668,0.750554 0.46781,0.732151 0.48777,0.71138 0.50654,0.688241 0.52412,0.662735 0.54052,0.634861 0.55575,0.604619 0.56979,0.57201 0.58264,0.537032 0.59431,0.499687 0.6048,0.459974 49.5655,35.717935 0.28761,0.230107 0.26303,0.257851 0.23578,0.282984 0.20614,0.30525 0.17441,0.324425 0.14092,0.340312 0.10599,0.352754 0.07,0.361621 0.0333,0.366827 -0.004,0.368316 -0.0407,0.366074 -0.0773,0.360125 -0.11314,0.350528 -0.14781,0.33738 -0.18096,0.320815 -0.2123,0.301 -0.24147,0.278137 -0.26821,0.252455 -0.29223,0.224218 -0.31329,0.193708 -0.33117,0.161236 -0.3457,0.127133 -0.35672,0.09174 -0.36414,0.05542 z"
       id="path1006"
       inkscape:path-effect="#path-effect4138"
       inkscape:original-d="M 408.92764,-48.680145 H 355.29488 L 287.3315,-279.7341 h 53.63276 l 75.1542,188.568712 75.49581,-188.568712 h 54.31598 v 252.791389 h -53.63276 v -52.949548 -33.819391 c 0,-8.88186 0.11387,-16.28341 0.34161,-22.20465 0.22774,-5.92124 0.45548,-11.04539 0.68322,-15.37245 0.45548,-4.5548 1.02483,-9.22347 1.70805,-14.006 L 441.3976,-26.942711 H 390.83932 L 337.54816,-165.29475 c 1.59418,9.33733 2.50514,19.47176 2.73288,30.40328 0.45548,10.93152 0.68322,23.34335 0.68322,37.235492 z"
       sodipodi:nodetypes="ccccccccccssccccccsc" />
  </g>
  <g
     aria-label="A"
     transform="scale(1.0042739,0.99574428)"
     id="text397"
     style="font-weight:900;font-size:365.651px;font-family:'Satoshi Variable';-inkscape-font-specification:'Satoshi Variable, Heavy';fill:#fefefe;stroke-width:30.4709">
    <path
       d="M 125.37474,392.49564 H 63.579719 L 160.11158,121.9139 h 57.77286 l 96.16621,270.58174 h -62.89197 l -19.01385,-57.04156 h -87.39059 z m 55.9446,-164.54295 -19.3795,57.77285 h 53.38504 l -19.3795,-57.77285 q -2.1939,-6.94737 -4.38781,-14.26039 -2.19391,-7.31302 -2.92521,-12.06649 -0.7313,4.75347 -2.92521,12.06649 -1.82825,6.94737 -4.38781,14.26039 z"
       id="path4161" />
  </g>
</svg>
